# xmcd CD database file
#
# Track frame offsets:
#	150
#	23045
#	51625
#	77550
#	99295
#	120315
#	141260
#	168215
#	191248
#	211050
#
# Disc length: 3113 seconds
#
# Revision: 2
# Processed by: cddbd v1.5.1PL0 Copyright (c) Steve Scherf et al.
# Submitted via: CDex 1.50beta10
#
DISCID=7f0c270a
DTITLE=Rude Boys - Rude Awakening
DYEAR=1990
DGENRE=R&B
TTITLE0=Come on let's do this
TTITLE1=Written all over your face
TTITLE2=I feel for you
TTITLE3=Heaven
TTITLE4=Pressure
TTITLE5=Never get enough of it
TTITLE6=I'm going thru
TTITLE7=Are you lonely for me
TTITLE8=I need you
TTITLE9=Fool for you
EXTD=YEAR: 1990
EXTT0=
EXTT1=
EXTT2=
EXTT3=
EXTT4=
EXTT5=
EXTT6=
EXTT7=
EXTT8=
EXTT9=
PLAYORDER=
